%TF.GenerationSoftware,KiCad,Pcbnew,10.0.1*%
%TF.CreationDate,2026-07-22T22:18:37-06:00*%
%TF.ProjectId,Hardware_design,48617264-7761-4726-955f-64657369676e,rev?*%
%TF.SameCoordinates,Original*%
%TF.FileFunction,Soldermask,Bot*%
%TF.FilePolarity,Negative*%
%FSLAX46Y46*%
G04 Gerber Fmt 4.6, Leading zero omitted, Abs format (unit mm)*
G04 Created by KiCad (PCBNEW 10.0.1) date 2026-07-22 22:18:37*
%MOMM*%
%LPD*%
G01*
G04 APERTURE LIST*
G04 Aperture macros list*
%AMRoundRect*
0 Rectangle with rounded corners*
0 $1 Rounding radius*
0 $2 $3 $4 $5 $6 $7 $8 $9 X,Y pos of 4 corners*
0 Add a 4 corners polygon primitive as box body*
4,1,4,$2,$3,$4,$5,$6,$7,$8,$9,$2,$3,0*
0 Add four circle primitives for the rounded corners*
1,1,$1+$1,$2,$3*
1,1,$1+$1,$4,$5*
1,1,$1+$1,$6,$7*
1,1,$1+$1,$8,$9*
0 Add four rect primitives between the rounded corners*
20,1,$1+$1,$2,$3,$4,$5,0*
20,1,$1+$1,$4,$5,$6,$7,0*
20,1,$1+$1,$6,$7,$8,$9,0*
20,1,$1+$1,$8,$9,$2,$3,0*%
G04 Aperture macros list end*
%ADD10O,1.954000X4.454000*%
%ADD11O,1.954000X3.954000*%
%ADD12O,3.304000X1.604000*%
%ADD13C,2.500000*%
%ADD14RoundRect,0.102000X-0.530000X-0.530000X0.530000X-0.530000X0.530000X0.530000X-0.530000X0.530000X0*%
%ADD15C,1.264000*%
%ADD16C,1.854000*%
%ADD17C,2.004000*%
%ADD18R,1.701800X1.701800*%
%ADD19C,1.701800*%
%ADD20C,2.204000*%
%ADD21RoundRect,0.102000X-0.750000X0.650000X-0.750000X-0.650000X0.750000X-0.650000X0.750000X0.650000X0*%
G04 APERTURE END LIST*
D10*
%TO.C,J3*%
X52387500Y-102025000D03*
D11*
X46487500Y-102025000D03*
D12*
X49587500Y-106725000D03*
%TD*%
D13*
%TO.C,REF\u002A\u002A*%
X42260000Y-31220000D03*
%TD*%
D14*
%TO.C,J1*%
X78820000Y-32100000D03*
D15*
X78820000Y-30830000D03*
X80090000Y-32100000D03*
X80090000Y-30830000D03*
X81360000Y-32100000D03*
X81360000Y-30830000D03*
%TD*%
D16*
%TO.C,E1*%
X51025000Y-75825000D03*
D17*
X56075000Y-70775000D03*
X56075000Y-80875000D03*
X45975000Y-80875000D03*
X45975000Y-70775000D03*
%TD*%
D18*
%TO.C,SW9*%
X253376250Y-88273100D03*
D19*
X265873050Y-88273100D03*
X253376250Y-93276900D03*
X265873050Y-93276900D03*
%TD*%
D18*
%TO.C,SW5*%
X229776250Y-134273100D03*
D19*
X242273050Y-134273100D03*
X229776250Y-139276900D03*
X242273050Y-139276900D03*
%TD*%
D18*
%TO.C,SW10*%
X253376250Y-134273100D03*
D19*
X265873050Y-134273100D03*
X253376250Y-139276900D03*
X265873050Y-139276900D03*
%TD*%
D13*
%TO.C,REF\u002A\u002A*%
X260840000Y-202570000D03*
%TD*%
D18*
%TO.C,SW7*%
X63476250Y-100178100D03*
D19*
X75973050Y-100178100D03*
X63476250Y-105181900D03*
X75973050Y-105181900D03*
%TD*%
D18*
%TO.C,SW4*%
X229776250Y-88273100D03*
D19*
X242273050Y-88273100D03*
X229776250Y-93276900D03*
X242273050Y-93276900D03*
%TD*%
D18*
%TO.C,SW8*%
X253353200Y-42273100D03*
D19*
X265850000Y-42273100D03*
X253353200Y-47276900D03*
X265850000Y-47276900D03*
%TD*%
D18*
%TO.C,SW11*%
X253376250Y-180273100D03*
D19*
X265873050Y-180273100D03*
X253376250Y-185276900D03*
X265873050Y-185276900D03*
%TD*%
D13*
%TO.C,REF\u002A\u002A*%
X46350000Y-92440000D03*
%TD*%
D18*
%TO.C,SW6*%
X229776250Y-180273100D03*
D19*
X242273050Y-180273100D03*
X229776250Y-185276900D03*
X242273050Y-185276900D03*
%TD*%
D20*
%TO.C,LS1*%
X89940000Y-98880000D03*
X89940000Y-93880000D03*
%TD*%
D13*
%TO.C,REF\u002A\u002A*%
X263620000Y-24070000D03*
%TD*%
D18*
%TO.C,SW3*%
X229801250Y-41898100D03*
D19*
X242298050Y-41898100D03*
X229801250Y-46901900D03*
X242298050Y-46901900D03*
%TD*%
D13*
%TO.C,REF\u002A\u002A*%
X96600000Y-203550000D03*
%TD*%
D21*
%TO.C,C18*%
X103525000Y-124375000D03*
X103525000Y-126275000D03*
%TD*%
%TO.C,C16*%
X102950000Y-78525000D03*
X102950000Y-80425000D03*
%TD*%
%TO.C,C21*%
X106850000Y-193200000D03*
X106850000Y-195100000D03*
%TD*%
%TO.C,C14*%
X102200000Y-32250000D03*
X102200000Y-34150000D03*
%TD*%
%TO.C,C20*%
X103375000Y-171300000D03*
X103375000Y-173200000D03*
%TD*%
%TO.C,C15*%
X107600000Y-56825000D03*
X107600000Y-58725000D03*
%TD*%
%TO.C,C19*%
X106750000Y-146975000D03*
X106750000Y-148875000D03*
%TD*%
%TO.C,C17*%
X106550000Y-101450000D03*
X106550000Y-103350000D03*
%TD*%
%TO.C,C22*%
X235575000Y-158450000D03*
X235575000Y-160350000D03*
%TD*%
M02*
