%TF.GenerationSoftware,KiCad,Pcbnew,10.0.1*%
%TF.CreationDate,2026-07-22T22:18:37-06:00*%
%TF.ProjectId,Hardware_design,48617264-7761-4726-955f-64657369676e,rev?*%
%TF.SameCoordinates,Original*%
%TF.FileFunction,Paste,Top*%
%TF.FilePolarity,Positive*%
%FSLAX46Y46*%
G04 Gerber Fmt 4.6, Leading zero omitted, Abs format (unit mm)*
G04 Created by KiCad (PCBNEW 10.0.1) date 2026-07-22 22:18:37*
%MOMM*%
%LPD*%
G01*
G04 APERTURE LIST*
G04 Aperture macros list*
%AMRoundRect*
0 Rectangle with rounded corners*
0 $1 Rounding radius*
0 $2 $3 $4 $5 $6 $7 $8 $9 X,Y pos of 4 corners*
0 Add a 4 corners polygon primitive as box body*
4,1,4,$2,$3,$4,$5,$6,$7,$8,$9,$2,$3,0*
0 Add four circle primitives for the rounded corners*
1,1,$1+$1,$2,$3*
1,1,$1+$1,$4,$5*
1,1,$1+$1,$6,$7*
1,1,$1+$1,$8,$9*
0 Add four rect primitives between the rounded corners*
20,1,$1+$1,$2,$3,$4,$5,0*
20,1,$1+$1,$4,$5,$6,$7,0*
20,1,$1+$1,$6,$7,$8,$9,0*
20,1,$1+$1,$8,$9,$2,$3,0*%
G04 Aperture macros list end*
%ADD10RoundRect,0.075000X0.225000X-0.585000X0.225000X0.585000X-0.225000X0.585000X-0.225000X-0.585000X0*%
%ADD11R,0.920000X1.380000*%
%ADD12RoundRect,0.073750X-0.951250X-0.221250X0.951250X-0.221250X0.951250X0.221250X-0.951250X0.221250X0*%
%ADD13R,1.000000X3.000000*%
%ADD14R,1.500000X1.300000*%
%ADD15R,1.220000X0.910000*%
%ADD16R,2.299995X1.398965*%
%ADD17RoundRect,0.162500X0.337500X0.162500X-0.337500X0.162500X-0.337500X-0.162500X0.337500X-0.162500X0*%
%ADD18R,1.380000X0.920000*%
%ADD19R,0.740000X3.730000*%
%ADD20R,2.100000X1.400000*%
%ADD21R,1.300000X1.500000*%
%ADD22RoundRect,0.150000X-0.835000X-0.150000X0.835000X-0.150000X0.835000X0.150000X-0.835000X0.150000X0*%
%ADD23R,1.500000X0.900000*%
%ADD24R,0.900000X1.500000*%
%ADD25R,0.900000X0.900000*%
%ADD26R,1.701800X0.533400*%
%ADD27R,1.200000X1.200000*%
%ADD28R,1.600200X0.838200*%
%ADD29R,1.600200X3.098800*%
%ADD30R,1.398965X2.299995*%
%ADD31RoundRect,0.115000X0.345000X0.370000X-0.345000X0.370000X-0.345000X-0.370000X0.345000X-0.370000X0*%
%ADD32RoundRect,0.075000X-0.225000X0.875000X-0.225000X-0.875000X0.225000X-0.875000X0.225000X0.875000X0*%
G04 APERTURE END LIST*
D10*
%TO.C,Q1*%
X90175000Y-89210000D03*
X88125000Y-89210000D03*
X89150000Y-87210000D03*
%TD*%
D11*
%TO.C,R31*%
X242580000Y-193950000D03*
X240670000Y-193950000D03*
%TD*%
D12*
%TO.C,U12*%
X231020000Y-151990000D03*
X231020000Y-153260000D03*
X231020000Y-154530000D03*
X231020000Y-155800000D03*
X231020000Y-157070000D03*
X231020000Y-158340000D03*
X231020000Y-159610000D03*
X231020000Y-160880000D03*
X231020000Y-162150000D03*
X231020000Y-163420000D03*
X231020000Y-164690000D03*
X231020000Y-165960000D03*
X240330000Y-165960000D03*
X240330000Y-164690000D03*
X240330000Y-163420000D03*
X240330000Y-162150000D03*
X240330000Y-160880000D03*
X240330000Y-159610000D03*
X240330000Y-158340000D03*
X240330000Y-157070000D03*
X240330000Y-155800000D03*
X240330000Y-154530000D03*
X240330000Y-153260000D03*
X240330000Y-151990000D03*
%TD*%
D13*
%TO.C,DS45*%
X159800000Y-38900000D03*
X161300000Y-38900000D03*
X162800000Y-38900000D03*
X164300000Y-38900000D03*
X165800000Y-38900000D03*
X165800000Y-26900000D03*
X164300000Y-26900000D03*
X162800000Y-26900000D03*
X161300000Y-26900000D03*
X159800000Y-26900000D03*
%TD*%
D14*
%TO.C,C9*%
X79775000Y-40125000D03*
X79775000Y-38225000D03*
%TD*%
D15*
%TO.C,D7*%
X232210000Y-111565000D03*
X232210000Y-114835000D03*
%TD*%
D13*
%TO.C,DS15*%
X170200000Y-107900000D03*
X171700000Y-107900000D03*
X173200000Y-107900000D03*
X174700000Y-107900000D03*
X176200000Y-107900000D03*
X176200000Y-95900000D03*
X174700000Y-95900000D03*
X173200000Y-95900000D03*
X171700000Y-95900000D03*
X170200000Y-95900000D03*
%TD*%
D11*
%TO.C,R38*%
X257236950Y-37175000D03*
X255326950Y-37175000D03*
%TD*%
%TO.C,R27*%
X68180000Y-92805000D03*
X66270000Y-92805000D03*
%TD*%
D14*
%TO.C,C1*%
X52500000Y-42760000D03*
X52500000Y-44660000D03*
%TD*%
D16*
%TO.C,C36*%
X90100000Y-36630513D03*
X90100000Y-34029487D03*
%TD*%
D14*
%TO.C,C2*%
X52450000Y-53410000D03*
X52450000Y-55310000D03*
%TD*%
D13*
%TO.C,DS7*%
X170200000Y-61900000D03*
X171700000Y-61900000D03*
X173200000Y-61900000D03*
X174700000Y-61900000D03*
X176200000Y-61900000D03*
X176200000Y-49900000D03*
X174700000Y-49900000D03*
X173200000Y-49900000D03*
X171700000Y-49900000D03*
X170200000Y-49900000D03*
%TD*%
D12*
%TO.C,U5*%
X100145000Y-48915000D03*
X100145000Y-50185000D03*
X100145000Y-51455000D03*
X100145000Y-52725000D03*
X100145000Y-53995000D03*
X100145000Y-55265000D03*
X100145000Y-56535000D03*
X100145000Y-57805000D03*
X100145000Y-59075000D03*
X100145000Y-60345000D03*
X100145000Y-61615000D03*
X100145000Y-62885000D03*
X109455000Y-62885000D03*
X109455000Y-61615000D03*
X109455000Y-60345000D03*
X109455000Y-59075000D03*
X109455000Y-57805000D03*
X109455000Y-56535000D03*
X109455000Y-55265000D03*
X109455000Y-53995000D03*
X109455000Y-52725000D03*
X109455000Y-51455000D03*
X109455000Y-50185000D03*
X109455000Y-48915000D03*
%TD*%
D17*
%TO.C,D1*%
X69205000Y-74230000D03*
X69205000Y-72180000D03*
X66805000Y-73200000D03*
%TD*%
D13*
%TO.C,DS50*%
X201400000Y-61900000D03*
X202900000Y-61900000D03*
X204400000Y-61900000D03*
X205900000Y-61900000D03*
X207400000Y-61900000D03*
X207400000Y-49900000D03*
X205900000Y-49900000D03*
X204400000Y-49900000D03*
X202900000Y-49900000D03*
X201400000Y-49900000D03*
%TD*%
D11*
%TO.C,R26*%
X242655000Y-191150000D03*
X240745000Y-191150000D03*
%TD*%
%TO.C,R33*%
X257236950Y-34975000D03*
X255326950Y-34975000D03*
%TD*%
D13*
%TO.C,DS8*%
X180600000Y-61900000D03*
X182100000Y-61900000D03*
X183600000Y-61900000D03*
X185100000Y-61900000D03*
X186600000Y-61900000D03*
X186600000Y-49900000D03*
X185100000Y-49900000D03*
X183600000Y-49900000D03*
X182100000Y-49900000D03*
X180600000Y-49900000D03*
%TD*%
D11*
%TO.C,R21*%
X84075000Y-86940000D03*
X85985000Y-86940000D03*
%TD*%
D13*
%TO.C,DS13*%
X149400000Y-107900000D03*
X150900000Y-107900000D03*
X152400000Y-107900000D03*
X153900000Y-107900000D03*
X155400000Y-107900000D03*
X155400000Y-95900000D03*
X153900000Y-95900000D03*
X152400000Y-95900000D03*
X150900000Y-95900000D03*
X149400000Y-95900000D03*
%TD*%
D15*
%TO.C,D4*%
X240680000Y-102997500D03*
X240680000Y-106267500D03*
%TD*%
D18*
%TO.C,R14*%
X108900000Y-78395000D03*
X108900000Y-80305000D03*
%TD*%
D13*
%TO.C,DS47*%
X180600000Y-38900000D03*
X182100000Y-38900000D03*
X183600000Y-38900000D03*
X185100000Y-38900000D03*
X186600000Y-38900000D03*
X186600000Y-26900000D03*
X185100000Y-26900000D03*
X183600000Y-26900000D03*
X182100000Y-26900000D03*
X180600000Y-26900000D03*
%TD*%
D15*
%TO.C,D3*%
X243800000Y-100602500D03*
X243800000Y-103872500D03*
%TD*%
D13*
%TO.C,DS48*%
X191000000Y-38900000D03*
X192500000Y-38900000D03*
X194000000Y-38900000D03*
X195500000Y-38900000D03*
X197000000Y-38900000D03*
X197000000Y-26900000D03*
X195500000Y-26900000D03*
X194000000Y-26900000D03*
X192500000Y-26900000D03*
X191000000Y-26900000D03*
%TD*%
D11*
%TO.C,R9*%
X86645000Y-58875000D03*
X88555000Y-58875000D03*
%TD*%
D13*
%TO.C,DS1*%
X118200000Y-38900000D03*
X119700000Y-38900000D03*
X121200000Y-38900000D03*
X122700000Y-38900000D03*
X124200000Y-38900000D03*
X124200000Y-26900000D03*
X122700000Y-26900000D03*
X121200000Y-26900000D03*
X119700000Y-26900000D03*
X118200000Y-26900000D03*
%TD*%
%TO.C,DS32*%
X180600000Y-199900000D03*
X182100000Y-199900000D03*
X183600000Y-199900000D03*
X185100000Y-199900000D03*
X186600000Y-199900000D03*
X186600000Y-187900000D03*
X185100000Y-187900000D03*
X183600000Y-187900000D03*
X182100000Y-187900000D03*
X180600000Y-187900000D03*
%TD*%
D16*
%TO.C,C35*%
X83075000Y-38800513D03*
X83075000Y-36199487D03*
%TD*%
D13*
%TO.C,DS4*%
X149400000Y-38900000D03*
X150900000Y-38900000D03*
X152400000Y-38900000D03*
X153900000Y-38900000D03*
X155400000Y-38900000D03*
X155400000Y-26900000D03*
X153900000Y-26900000D03*
X152400000Y-26900000D03*
X150900000Y-26900000D03*
X149400000Y-26900000D03*
%TD*%
D18*
%TO.C,R8*%
X90850000Y-48870000D03*
X90850000Y-50780000D03*
%TD*%
D11*
%TO.C,R40*%
X259080000Y-128300000D03*
X257170000Y-128300000D03*
%TD*%
D13*
%TO.C,DS65*%
X191000000Y-153900000D03*
X192500000Y-153900000D03*
X194000000Y-153900000D03*
X195500000Y-153900000D03*
X197000000Y-153900000D03*
X197000000Y-141900000D03*
X195500000Y-141900000D03*
X194000000Y-141900000D03*
X192500000Y-141900000D03*
X191000000Y-141900000D03*
%TD*%
D19*
%TO.C,J2*%
X75470000Y-50940000D03*
X76740000Y-53200000D03*
X78010000Y-50940000D03*
X79280000Y-53200000D03*
%TD*%
D11*
%TO.C,R39*%
X258855000Y-82675000D03*
X256945000Y-82675000D03*
%TD*%
D20*
%TO.C,SW1*%
X40500000Y-44610000D03*
X49600000Y-44610000D03*
X40500000Y-40110000D03*
X49600000Y-40110000D03*
%TD*%
D11*
%TO.C,R28*%
X233231250Y-36175000D03*
X231321250Y-36175000D03*
%TD*%
%TO.C,R41*%
X258880000Y-174450000D03*
X256970000Y-174450000D03*
%TD*%
%TO.C,R24*%
X235455000Y-79575000D03*
X233545000Y-79575000D03*
%TD*%
D14*
%TO.C,C25*%
X228976250Y-36125000D03*
X228976250Y-34225000D03*
%TD*%
D18*
%TO.C,R19*%
X112040000Y-193275000D03*
X112040000Y-195185000D03*
%TD*%
D15*
%TO.C,D6*%
X234960000Y-108905000D03*
X234960000Y-112175000D03*
%TD*%
D13*
%TO.C,DS56*%
X190950000Y-84900000D03*
X192450000Y-84900000D03*
X193950000Y-84900000D03*
X195450000Y-84900000D03*
X196950000Y-84900000D03*
X196950000Y-72900000D03*
X195450000Y-72900000D03*
X193950000Y-72900000D03*
X192450000Y-72900000D03*
X190950000Y-72900000D03*
%TD*%
D21*
%TO.C,C6*%
X62655000Y-66800000D03*
X60755000Y-66800000D03*
%TD*%
D13*
%TO.C,DS11*%
X139000000Y-84900000D03*
X140500000Y-84900000D03*
X142000000Y-84900000D03*
X143500000Y-84900000D03*
X145000000Y-84900000D03*
X145000000Y-72900000D03*
X143500000Y-72900000D03*
X142000000Y-72900000D03*
X140500000Y-72900000D03*
X139000000Y-72900000D03*
%TD*%
D11*
%TO.C,R3*%
X69105000Y-68460000D03*
X67195000Y-68460000D03*
%TD*%
D13*
%TO.C,DS2*%
X128600000Y-38900000D03*
X130100000Y-38900000D03*
X131600000Y-38900000D03*
X133100000Y-38900000D03*
X134600000Y-38900000D03*
X134600000Y-26900000D03*
X133100000Y-26900000D03*
X131600000Y-26900000D03*
X130100000Y-26900000D03*
X128600000Y-26900000D03*
%TD*%
%TO.C,DS49*%
X191000000Y-61900000D03*
X192500000Y-61900000D03*
X194000000Y-61900000D03*
X195500000Y-61900000D03*
X197000000Y-61900000D03*
X197000000Y-49900000D03*
X195500000Y-49900000D03*
X194000000Y-49900000D03*
X192500000Y-49900000D03*
X191000000Y-49900000D03*
%TD*%
D11*
%TO.C,R25*%
X235380000Y-125750000D03*
X233470000Y-125750000D03*
%TD*%
D13*
%TO.C,DS5*%
X149400000Y-61900000D03*
X150900000Y-61900000D03*
X152400000Y-61900000D03*
X153900000Y-61900000D03*
X155400000Y-61900000D03*
X155400000Y-49900000D03*
X153900000Y-49900000D03*
X152400000Y-49900000D03*
X150900000Y-49900000D03*
X149400000Y-49900000D03*
%TD*%
D12*
%TO.C,U11*%
X100145000Y-186915000D03*
X100145000Y-188185000D03*
X100145000Y-189455000D03*
X100145000Y-190725000D03*
X100145000Y-191995000D03*
X100145000Y-193265000D03*
X100145000Y-194535000D03*
X100145000Y-195805000D03*
X100145000Y-197075000D03*
X100145000Y-198345000D03*
X100145000Y-199615000D03*
X100145000Y-200885000D03*
X109455000Y-200885000D03*
X109455000Y-199615000D03*
X109455000Y-198345000D03*
X109455000Y-197075000D03*
X109455000Y-195805000D03*
X109455000Y-194535000D03*
X109455000Y-193265000D03*
X109455000Y-191995000D03*
X109455000Y-190725000D03*
X109455000Y-189455000D03*
X109455000Y-188185000D03*
X109455000Y-186915000D03*
%TD*%
D13*
%TO.C,DS62*%
X170200000Y-130900000D03*
X171700000Y-130900000D03*
X173200000Y-130900000D03*
X174700000Y-130900000D03*
X176200000Y-130900000D03*
X176200000Y-118900000D03*
X174700000Y-118900000D03*
X173200000Y-118900000D03*
X171700000Y-118900000D03*
X170200000Y-118900000D03*
%TD*%
D11*
%TO.C,R10*%
X43715000Y-35170000D03*
X45625000Y-35170000D03*
%TD*%
D13*
%TO.C,DS57*%
X191000000Y-107900000D03*
X192500000Y-107900000D03*
X194000000Y-107900000D03*
X195500000Y-107900000D03*
X197000000Y-107900000D03*
X197000000Y-95900000D03*
X195500000Y-95900000D03*
X194000000Y-95900000D03*
X192500000Y-95900000D03*
X191000000Y-95900000D03*
%TD*%
D18*
%TO.C,R6*%
X68805000Y-63555000D03*
X68805000Y-61645000D03*
%TD*%
D13*
%TO.C,DS6*%
X159800000Y-61900000D03*
X161300000Y-61900000D03*
X162800000Y-61900000D03*
X164300000Y-61900000D03*
X165800000Y-61900000D03*
X165800000Y-49900000D03*
X164300000Y-49900000D03*
X162800000Y-49900000D03*
X161300000Y-49900000D03*
X159800000Y-49900000D03*
%TD*%
D16*
%TO.C,C23*%
X78820000Y-82360513D03*
X78820000Y-79759487D03*
%TD*%
D13*
%TO.C,DS51*%
X201400000Y-38900000D03*
X202900000Y-38900000D03*
X204400000Y-38900000D03*
X205900000Y-38900000D03*
X207400000Y-38900000D03*
X207400000Y-26900000D03*
X205900000Y-26900000D03*
X204400000Y-26900000D03*
X202900000Y-26900000D03*
X201400000Y-26900000D03*
%TD*%
D14*
%TO.C,C30*%
X252981950Y-37225000D03*
X252981950Y-35325000D03*
%TD*%
D11*
%TO.C,R32*%
X68205000Y-95030000D03*
X66295000Y-95030000D03*
%TD*%
D15*
%TO.C,D10*%
X68110000Y-82030000D03*
X68110000Y-85300000D03*
%TD*%
D12*
%TO.C,U7*%
X100145000Y-94915000D03*
X100145000Y-96185000D03*
X100145000Y-97455000D03*
X100145000Y-98725000D03*
X100145000Y-99995000D03*
X100145000Y-101265000D03*
X100145000Y-102535000D03*
X100145000Y-103805000D03*
X100145000Y-105075000D03*
X100145000Y-106345000D03*
X100145000Y-107615000D03*
X100145000Y-108885000D03*
X109455000Y-108885000D03*
X109455000Y-107615000D03*
X109455000Y-106345000D03*
X109455000Y-105075000D03*
X109455000Y-103805000D03*
X109455000Y-102535000D03*
X109455000Y-101265000D03*
X109455000Y-99995000D03*
X109455000Y-98725000D03*
X109455000Y-97455000D03*
X109455000Y-96185000D03*
X109455000Y-94915000D03*
%TD*%
D13*
%TO.C,DS27*%
X139000000Y-176900000D03*
X140500000Y-176900000D03*
X142000000Y-176900000D03*
X143500000Y-176900000D03*
X145000000Y-176900000D03*
X145000000Y-164900000D03*
X143500000Y-164900000D03*
X142000000Y-164900000D03*
X140500000Y-164900000D03*
X139000000Y-164900000D03*
%TD*%
%TO.C,DS3*%
X139000000Y-38900000D03*
X140500000Y-38900000D03*
X142000000Y-38900000D03*
X143500000Y-38900000D03*
X145000000Y-38900000D03*
X145000000Y-26900000D03*
X143500000Y-26900000D03*
X142000000Y-26900000D03*
X140500000Y-26900000D03*
X139000000Y-26900000D03*
%TD*%
D22*
%TO.C,U2*%
X83132500Y-40815000D03*
X83132500Y-42085000D03*
X83132500Y-43355000D03*
X83132500Y-44625000D03*
X83132500Y-45895000D03*
X83132500Y-47165000D03*
X83132500Y-48435000D03*
X88082500Y-48435000D03*
X88082500Y-47165000D03*
X88082500Y-45895000D03*
X88082500Y-44625000D03*
X88082500Y-43355000D03*
X88082500Y-42085000D03*
X88082500Y-40815000D03*
%TD*%
D14*
%TO.C,C32*%
X254450000Y-128425000D03*
X254450000Y-126525000D03*
%TD*%
D13*
%TO.C,DS70*%
X170200000Y-176900000D03*
X171700000Y-176900000D03*
X173200000Y-176900000D03*
X174700000Y-176900000D03*
X176200000Y-176900000D03*
X176200000Y-164900000D03*
X174700000Y-164900000D03*
X173200000Y-164900000D03*
X171700000Y-164900000D03*
X170200000Y-164900000D03*
%TD*%
D23*
%TO.C,IC1*%
X56550000Y-28640000D03*
X56550000Y-29910000D03*
X56550000Y-31180000D03*
X56550000Y-32450000D03*
X56550000Y-33720000D03*
X56550000Y-34990000D03*
X56550000Y-36260000D03*
X56550000Y-37530000D03*
X56550000Y-38800000D03*
X56550000Y-40070000D03*
X56550000Y-41340000D03*
X56550000Y-42610000D03*
X56550000Y-43880000D03*
X56550000Y-45150000D03*
D24*
X58315000Y-46400000D03*
X59585000Y-46400000D03*
X60855000Y-46400000D03*
X62125000Y-46400000D03*
X63395000Y-46400000D03*
X64665000Y-46400000D03*
X65935000Y-46400000D03*
X67205000Y-46400000D03*
X68475000Y-46400000D03*
X69745000Y-46400000D03*
X71015000Y-46400000D03*
X72285000Y-46400000D03*
D23*
X74050000Y-45150000D03*
X74050000Y-43880000D03*
X74050000Y-42610000D03*
X74050000Y-41340000D03*
X74050000Y-40070000D03*
X74050000Y-38800000D03*
X74050000Y-37530000D03*
X74050000Y-36260000D03*
X74050000Y-34990000D03*
X74050000Y-33720000D03*
X74050000Y-32450000D03*
X74050000Y-31180000D03*
X74050000Y-29910000D03*
X74050000Y-28640000D03*
D25*
X63800000Y-36360000D03*
X63800000Y-34960000D03*
X62400000Y-34960000D03*
X62400000Y-36360000D03*
X62400000Y-37760000D03*
X63800000Y-37760000D03*
X65200000Y-37760000D03*
X65200000Y-36360000D03*
X65200000Y-34960000D03*
%TD*%
D13*
%TO.C,DS67*%
X211800000Y-107900000D03*
X213300000Y-107900000D03*
X214800000Y-107900000D03*
X216300000Y-107900000D03*
X217800000Y-107900000D03*
X217800000Y-95900000D03*
X216300000Y-95900000D03*
X214800000Y-95900000D03*
X213300000Y-95900000D03*
X211800000Y-95900000D03*
%TD*%
D11*
%TO.C,R4*%
X61050000Y-64000000D03*
X62960000Y-64000000D03*
%TD*%
D14*
%TO.C,C7*%
X71800000Y-64150000D03*
X71800000Y-66050000D03*
%TD*%
D13*
%TO.C,DS36*%
X211800000Y-153900000D03*
X213300000Y-153900000D03*
X214800000Y-153900000D03*
X216300000Y-153900000D03*
X217800000Y-153900000D03*
X217800000Y-141900000D03*
X216300000Y-141900000D03*
X214800000Y-141900000D03*
X213300000Y-141900000D03*
X211800000Y-141900000D03*
%TD*%
%TO.C,DS68*%
X211800000Y-84900000D03*
X213300000Y-84900000D03*
X214800000Y-84900000D03*
X216300000Y-84900000D03*
X217800000Y-84900000D03*
X217800000Y-72900000D03*
X216300000Y-72900000D03*
X214800000Y-72900000D03*
X213300000Y-72900000D03*
X211800000Y-72900000D03*
%TD*%
D12*
%TO.C,U9*%
X100145000Y-140915000D03*
X100145000Y-142185000D03*
X100145000Y-143455000D03*
X100145000Y-144725000D03*
X100145000Y-145995000D03*
X100145000Y-147265000D03*
X100145000Y-148535000D03*
X100145000Y-149805000D03*
X100145000Y-151075000D03*
X100145000Y-152345000D03*
X100145000Y-153615000D03*
X100145000Y-154885000D03*
X109455000Y-154885000D03*
X109455000Y-153615000D03*
X109455000Y-152345000D03*
X109455000Y-151075000D03*
X109455000Y-149805000D03*
X109455000Y-148535000D03*
X109455000Y-147265000D03*
X109455000Y-145995000D03*
X109455000Y-144725000D03*
X109455000Y-143455000D03*
X109455000Y-142185000D03*
X109455000Y-140915000D03*
%TD*%
D18*
%TO.C,R12*%
X108725000Y-32020000D03*
X108725000Y-33930000D03*
%TD*%
%TO.C,R16*%
X108700000Y-124395000D03*
X108700000Y-126305000D03*
%TD*%
D13*
%TO.C,DS17*%
X118200000Y-130900000D03*
X119700000Y-130900000D03*
X121200000Y-130900000D03*
X122700000Y-130900000D03*
X124200000Y-130900000D03*
X124200000Y-118900000D03*
X122700000Y-118900000D03*
X121200000Y-118900000D03*
X119700000Y-118900000D03*
X118200000Y-118900000D03*
%TD*%
%TO.C,DS31*%
X170200000Y-199900000D03*
X171700000Y-199900000D03*
X173200000Y-199900000D03*
X174700000Y-199900000D03*
X176200000Y-199900000D03*
X176200000Y-187900000D03*
X174700000Y-187900000D03*
X173200000Y-187900000D03*
X171700000Y-187900000D03*
X170200000Y-187900000D03*
%TD*%
D15*
%TO.C,D9*%
X70730000Y-82087500D03*
X70730000Y-85357500D03*
%TD*%
D13*
%TO.C,DS73*%
X191000000Y-199900000D03*
X192500000Y-199900000D03*
X194000000Y-199900000D03*
X195500000Y-199900000D03*
X197000000Y-199900000D03*
X197000000Y-187900000D03*
X195500000Y-187900000D03*
X194000000Y-187900000D03*
X192500000Y-187900000D03*
X191000000Y-187900000D03*
%TD*%
%TO.C,DS69*%
X159800000Y-176900000D03*
X161300000Y-176900000D03*
X162800000Y-176900000D03*
X164300000Y-176900000D03*
X165800000Y-176900000D03*
X165800000Y-164900000D03*
X164300000Y-164900000D03*
X162800000Y-164900000D03*
X161300000Y-164900000D03*
X159800000Y-164900000D03*
%TD*%
D26*
%TO.C,U16*%
X249637600Y-107940000D03*
X249637600Y-109210000D03*
X249637600Y-110480000D03*
X249637600Y-111750000D03*
X249637600Y-113020000D03*
X249637600Y-114290000D03*
X249637600Y-115560000D03*
X254819200Y-115560000D03*
X254819200Y-114290000D03*
X254819200Y-113020000D03*
X254819200Y-111750000D03*
X254819200Y-110480000D03*
X254819200Y-109210000D03*
X254819200Y-107940000D03*
%TD*%
D16*
%TO.C,C8*%
X71900000Y-58700513D03*
X71900000Y-56099487D03*
%TD*%
D13*
%TO.C,DS61*%
X159800000Y-130900000D03*
X161300000Y-130900000D03*
X162800000Y-130900000D03*
X164300000Y-130900000D03*
X165800000Y-130900000D03*
X165800000Y-118900000D03*
X164300000Y-118900000D03*
X162800000Y-118900000D03*
X161300000Y-118900000D03*
X159800000Y-118900000D03*
%TD*%
%TO.C,DS28*%
X149400000Y-176900000D03*
X150900000Y-176900000D03*
X152400000Y-176900000D03*
X153900000Y-176900000D03*
X155400000Y-176900000D03*
X155400000Y-164900000D03*
X153900000Y-164900000D03*
X152400000Y-164900000D03*
X150900000Y-164900000D03*
X149400000Y-164900000D03*
%TD*%
%TO.C,DS34*%
X211800000Y-199900000D03*
X213300000Y-199900000D03*
X214800000Y-199900000D03*
X216300000Y-199900000D03*
X217800000Y-199900000D03*
X217800000Y-187900000D03*
X216300000Y-187900000D03*
X214800000Y-187900000D03*
X213300000Y-187900000D03*
X211800000Y-187900000D03*
%TD*%
D21*
%TO.C,C3*%
X52980000Y-29540000D03*
X51080000Y-29540000D03*
%TD*%
D13*
%TO.C,DS72*%
X191000000Y-176900000D03*
X192500000Y-176900000D03*
X194000000Y-176900000D03*
X195500000Y-176900000D03*
X197000000Y-176900000D03*
X197000000Y-164900000D03*
X195500000Y-164900000D03*
X194000000Y-164900000D03*
X192500000Y-164900000D03*
X191000000Y-164900000D03*
%TD*%
%TO.C,DS71*%
X180600000Y-176900000D03*
X182100000Y-176900000D03*
X183600000Y-176900000D03*
X185100000Y-176900000D03*
X186600000Y-176900000D03*
X186600000Y-164900000D03*
X185100000Y-164900000D03*
X183600000Y-164900000D03*
X182100000Y-164900000D03*
X180600000Y-164900000D03*
%TD*%
%TO.C,DS52*%
X211800000Y-38900000D03*
X213300000Y-38900000D03*
X214800000Y-38900000D03*
X216300000Y-38900000D03*
X217800000Y-38900000D03*
X217800000Y-26900000D03*
X216300000Y-26900000D03*
X214800000Y-26900000D03*
X213300000Y-26900000D03*
X211800000Y-26900000D03*
%TD*%
D11*
%TO.C,R36*%
X258955000Y-171625000D03*
X257045000Y-171625000D03*
%TD*%
D13*
%TO.C,DS25*%
X118200000Y-176900000D03*
X119700000Y-176900000D03*
X121200000Y-176900000D03*
X122700000Y-176900000D03*
X124200000Y-176900000D03*
X124200000Y-164900000D03*
X122700000Y-164900000D03*
X121200000Y-164900000D03*
X119700000Y-164900000D03*
X118200000Y-164900000D03*
%TD*%
%TO.C,DS35*%
X211800000Y-176900000D03*
X213300000Y-176900000D03*
X214800000Y-176900000D03*
X216300000Y-176900000D03*
X217800000Y-176900000D03*
X217800000Y-164900000D03*
X216300000Y-164900000D03*
X214800000Y-164900000D03*
X213300000Y-164900000D03*
X211800000Y-164900000D03*
%TD*%
D14*
%TO.C,C27*%
X230675000Y-128475000D03*
X230675000Y-126575000D03*
%TD*%
%TO.C,C31*%
X254155000Y-82325000D03*
X254155000Y-80425000D03*
%TD*%
D20*
%TO.C,SW2*%
X40450000Y-55160000D03*
X49550000Y-55160000D03*
X40450000Y-50660000D03*
X49550000Y-50660000D03*
%TD*%
D18*
%TO.C,R20*%
X243900000Y-157725000D03*
X243900000Y-159635000D03*
%TD*%
D13*
%TO.C,DS21*%
X149400000Y-153900000D03*
X150900000Y-153900000D03*
X152400000Y-153900000D03*
X153900000Y-153900000D03*
X155400000Y-153900000D03*
X155400000Y-141900000D03*
X153900000Y-141900000D03*
X152400000Y-141900000D03*
X150900000Y-141900000D03*
X149400000Y-141900000D03*
%TD*%
D21*
%TO.C,C5*%
X67410000Y-66100000D03*
X69310000Y-66100000D03*
%TD*%
D12*
%TO.C,U8*%
X96770000Y-117915000D03*
X96770000Y-119185000D03*
X96770000Y-120455000D03*
X96770000Y-121725000D03*
X96770000Y-122995000D03*
X96770000Y-124265000D03*
X96770000Y-125535000D03*
X96770000Y-126805000D03*
X96770000Y-128075000D03*
X96770000Y-129345000D03*
X96770000Y-130615000D03*
X96770000Y-131885000D03*
X106080000Y-131885000D03*
X106080000Y-130615000D03*
X106080000Y-129345000D03*
X106080000Y-128075000D03*
X106080000Y-126805000D03*
X106080000Y-125535000D03*
X106080000Y-124265000D03*
X106080000Y-122995000D03*
X106080000Y-121725000D03*
X106080000Y-120455000D03*
X106080000Y-119185000D03*
X106080000Y-117915000D03*
%TD*%
D27*
%TO.C,D2*%
X88750000Y-56775000D03*
X86650000Y-56775000D03*
%TD*%
D11*
%TO.C,R11*%
X85355000Y-68712500D03*
X83445000Y-68712500D03*
%TD*%
D16*
%TO.C,C13*%
X77200000Y-57104487D03*
X77200000Y-59705513D03*
%TD*%
D18*
%TO.C,R15*%
X112175000Y-101445000D03*
X112175000Y-103355000D03*
%TD*%
D13*
%TO.C,DS24*%
X180600000Y-153900000D03*
X182100000Y-153900000D03*
X183600000Y-153900000D03*
X185100000Y-153900000D03*
X186600000Y-153900000D03*
X186600000Y-141900000D03*
X185100000Y-141900000D03*
X183600000Y-141900000D03*
X182100000Y-141900000D03*
X180600000Y-141900000D03*
%TD*%
D16*
%TO.C,C24*%
X255020000Y-105980513D03*
X255020000Y-103379487D03*
%TD*%
D13*
%TO.C,DS74*%
X201400000Y-176900000D03*
X202900000Y-176900000D03*
X204400000Y-176900000D03*
X205900000Y-176900000D03*
X207400000Y-176900000D03*
X207400000Y-164900000D03*
X205900000Y-164900000D03*
X204400000Y-164900000D03*
X202900000Y-164900000D03*
X201400000Y-164900000D03*
%TD*%
D14*
%TO.C,C29*%
X64133400Y-95001600D03*
X64133400Y-93101600D03*
%TD*%
D13*
%TO.C,DS60*%
X211800000Y-61900000D03*
X213300000Y-61900000D03*
X214800000Y-61900000D03*
X216300000Y-61900000D03*
X217800000Y-61900000D03*
X217800000Y-49900000D03*
X216300000Y-49900000D03*
X214800000Y-49900000D03*
X213300000Y-49900000D03*
X211800000Y-49900000D03*
%TD*%
D14*
%TO.C,C26*%
X230650000Y-82675000D03*
X230650000Y-80775000D03*
%TD*%
D26*
%TO.C,U15*%
X73529200Y-84360000D03*
X73529200Y-85630000D03*
X73529200Y-86900000D03*
X73529200Y-88170000D03*
X73529200Y-89440000D03*
X73529200Y-90710000D03*
X73529200Y-91980000D03*
X78710800Y-91980000D03*
X78710800Y-90710000D03*
X78710800Y-89440000D03*
X78710800Y-88170000D03*
X78710800Y-86900000D03*
X78710800Y-85630000D03*
X78710800Y-84360000D03*
%TD*%
D13*
%TO.C,DS29*%
X149400000Y-199900000D03*
X150900000Y-199900000D03*
X152400000Y-199900000D03*
X153900000Y-199900000D03*
X155400000Y-199900000D03*
X155400000Y-187900000D03*
X153900000Y-187900000D03*
X152400000Y-187900000D03*
X150900000Y-187900000D03*
X149400000Y-187900000D03*
%TD*%
%TO.C,DS53*%
X159750000Y-84900000D03*
X161250000Y-84900000D03*
X162750000Y-84900000D03*
X164250000Y-84900000D03*
X165750000Y-84900000D03*
X165750000Y-72900000D03*
X164250000Y-72900000D03*
X162750000Y-72900000D03*
X161250000Y-72900000D03*
X159750000Y-72900000D03*
%TD*%
%TO.C,DS16*%
X180600000Y-107900000D03*
X182100000Y-107900000D03*
X183600000Y-107900000D03*
X185100000Y-107900000D03*
X186600000Y-107900000D03*
X186600000Y-95900000D03*
X185100000Y-95900000D03*
X183600000Y-95900000D03*
X182100000Y-95900000D03*
X180600000Y-95900000D03*
%TD*%
D18*
%TO.C,R1*%
X52500000Y-38155000D03*
X52500000Y-40065000D03*
%TD*%
D28*
%TO.C,U3*%
X84272600Y-65460600D03*
X84272600Y-63962000D03*
X84272600Y-62438000D03*
X84272600Y-60939400D03*
D29*
X78227400Y-63200000D03*
%TD*%
D11*
%TO.C,R30*%
X235430000Y-128500000D03*
X233520000Y-128500000D03*
%TD*%
D18*
%TO.C,R18*%
X108575000Y-170395000D03*
X108575000Y-172305000D03*
%TD*%
D13*
%TO.C,DS22*%
X159800000Y-153900000D03*
X161300000Y-153900000D03*
X162800000Y-153900000D03*
X164300000Y-153900000D03*
X165800000Y-153900000D03*
X165800000Y-141900000D03*
X164300000Y-141900000D03*
X162800000Y-141900000D03*
X161300000Y-141900000D03*
X159800000Y-141900000D03*
%TD*%
%TO.C,DS10*%
X128600000Y-84900000D03*
X130100000Y-84900000D03*
X131600000Y-84900000D03*
X133100000Y-84900000D03*
X134600000Y-84900000D03*
X134600000Y-72900000D03*
X133100000Y-72900000D03*
X131600000Y-72900000D03*
X130100000Y-72900000D03*
X128600000Y-72900000D03*
%TD*%
%TO.C,DS12*%
X149400000Y-84900000D03*
X150900000Y-84900000D03*
X152400000Y-84900000D03*
X153900000Y-84900000D03*
X155400000Y-84900000D03*
X155400000Y-72900000D03*
X153900000Y-72900000D03*
X152400000Y-72900000D03*
X150900000Y-72900000D03*
X149400000Y-72900000D03*
%TD*%
%TO.C,DS20*%
X149400000Y-130900000D03*
X150900000Y-130900000D03*
X152400000Y-130900000D03*
X153900000Y-130900000D03*
X155400000Y-130900000D03*
X155400000Y-118900000D03*
X153900000Y-118900000D03*
X152400000Y-118900000D03*
X150900000Y-118900000D03*
X149400000Y-118900000D03*
%TD*%
D14*
%TO.C,C10*%
X86900000Y-37300000D03*
X86900000Y-35400000D03*
%TD*%
D13*
%TO.C,DS19*%
X139000000Y-130900000D03*
X140500000Y-130900000D03*
X142000000Y-130900000D03*
X143500000Y-130900000D03*
X145000000Y-130900000D03*
X145000000Y-118900000D03*
X143500000Y-118900000D03*
X142000000Y-118900000D03*
X140500000Y-118900000D03*
X139000000Y-118900000D03*
%TD*%
D16*
%TO.C,C12*%
X90050000Y-64699487D03*
X90050000Y-67300513D03*
%TD*%
D15*
%TO.C,D8*%
X229380000Y-114195000D03*
X229380000Y-117465000D03*
%TD*%
D12*
%TO.C,U4*%
X96770000Y-25915000D03*
X96770000Y-27185000D03*
X96770000Y-28455000D03*
X96770000Y-29725000D03*
X96770000Y-30995000D03*
X96770000Y-32265000D03*
X96770000Y-33535000D03*
X96770000Y-34805000D03*
X96770000Y-36075000D03*
X96770000Y-37345000D03*
X96770000Y-38615000D03*
X96770000Y-39885000D03*
X106080000Y-39885000D03*
X106080000Y-38615000D03*
X106080000Y-37345000D03*
X106080000Y-36075000D03*
X106080000Y-34805000D03*
X106080000Y-33535000D03*
X106080000Y-32265000D03*
X106080000Y-30995000D03*
X106080000Y-29725000D03*
X106080000Y-28455000D03*
X106080000Y-27185000D03*
X106080000Y-25915000D03*
%TD*%
D18*
%TO.C,R17*%
X112100000Y-147345000D03*
X112100000Y-149255000D03*
%TD*%
D11*
%TO.C,R29*%
X235480000Y-82750000D03*
X233570000Y-82750000D03*
%TD*%
D15*
%TO.C,D5*%
X237850000Y-106137500D03*
X237850000Y-109407500D03*
%TD*%
D12*
%TO.C,U6*%
X96770000Y-71940000D03*
X96770000Y-73210000D03*
X96770000Y-74480000D03*
X96770000Y-75750000D03*
X96770000Y-77020000D03*
X96770000Y-78290000D03*
X96770000Y-79560000D03*
X96770000Y-80830000D03*
X96770000Y-82100000D03*
X96770000Y-83370000D03*
X96770000Y-84640000D03*
X96770000Y-85910000D03*
X106080000Y-85910000D03*
X106080000Y-84640000D03*
X106080000Y-83370000D03*
X106080000Y-82100000D03*
X106080000Y-80830000D03*
X106080000Y-79560000D03*
X106080000Y-78290000D03*
X106080000Y-77020000D03*
X106080000Y-75750000D03*
X106080000Y-74480000D03*
X106080000Y-73210000D03*
X106080000Y-71940000D03*
%TD*%
D13*
%TO.C,DS66*%
X201400000Y-130900000D03*
X202900000Y-130900000D03*
X204400000Y-130900000D03*
X205900000Y-130900000D03*
X207400000Y-130900000D03*
X207400000Y-118900000D03*
X205900000Y-118900000D03*
X204400000Y-118900000D03*
X202900000Y-118900000D03*
X201400000Y-118900000D03*
%TD*%
D30*
%TO.C,C4*%
X52630513Y-32630000D03*
X50029487Y-32630000D03*
%TD*%
D13*
%TO.C,DS14*%
X159800000Y-107900000D03*
X161300000Y-107900000D03*
X162800000Y-107900000D03*
X164300000Y-107900000D03*
X165800000Y-107900000D03*
X165800000Y-95900000D03*
X164300000Y-95900000D03*
X162800000Y-95900000D03*
X161300000Y-95900000D03*
X159800000Y-95900000D03*
%TD*%
%TO.C,DS54*%
X170150000Y-84900000D03*
X171650000Y-84900000D03*
X173150000Y-84900000D03*
X174650000Y-84900000D03*
X176150000Y-84900000D03*
X176150000Y-72900000D03*
X174650000Y-72900000D03*
X173150000Y-72900000D03*
X171650000Y-72900000D03*
X170150000Y-72900000D03*
%TD*%
%TO.C,DS30*%
X159800000Y-199900000D03*
X161300000Y-199900000D03*
X162800000Y-199900000D03*
X164300000Y-199900000D03*
X165800000Y-199900000D03*
X165800000Y-187900000D03*
X164300000Y-187900000D03*
X162800000Y-187900000D03*
X161300000Y-187900000D03*
X159800000Y-187900000D03*
%TD*%
D31*
%TO.C,C11*%
X45565000Y-37510000D03*
X44015000Y-37510000D03*
%TD*%
D13*
%TO.C,DS26*%
X128600000Y-176900000D03*
X130100000Y-176900000D03*
X131600000Y-176900000D03*
X133100000Y-176900000D03*
X134600000Y-176900000D03*
X134600000Y-164900000D03*
X133100000Y-164900000D03*
X131600000Y-164900000D03*
X130100000Y-164900000D03*
X128600000Y-164900000D03*
%TD*%
%TO.C,DS58*%
X201400000Y-107900000D03*
X202900000Y-107900000D03*
X204400000Y-107900000D03*
X205900000Y-107900000D03*
X207400000Y-107900000D03*
X207400000Y-95900000D03*
X205900000Y-95900000D03*
X204400000Y-95900000D03*
X202900000Y-95900000D03*
X201400000Y-95900000D03*
%TD*%
%TO.C,DS33*%
X201400000Y-199900000D03*
X202900000Y-199900000D03*
X204400000Y-199900000D03*
X205900000Y-199900000D03*
X207400000Y-199900000D03*
X207400000Y-187900000D03*
X205900000Y-187900000D03*
X204400000Y-187900000D03*
X202900000Y-187900000D03*
X201400000Y-187900000D03*
%TD*%
D11*
%TO.C,R7*%
X59450000Y-61400000D03*
X61360000Y-61400000D03*
%TD*%
D13*
%TO.C,DS59*%
X201400000Y-84900000D03*
X202900000Y-84900000D03*
X204400000Y-84900000D03*
X205900000Y-84900000D03*
X207400000Y-84900000D03*
X207400000Y-72900000D03*
X205900000Y-72900000D03*
X204400000Y-72900000D03*
X202900000Y-72900000D03*
X201400000Y-72900000D03*
%TD*%
%TO.C,DS76*%
X211800000Y-130900000D03*
X213300000Y-130900000D03*
X214800000Y-130900000D03*
X216300000Y-130900000D03*
X217800000Y-130900000D03*
X217800000Y-118900000D03*
X216300000Y-118900000D03*
X214800000Y-118900000D03*
X213300000Y-118900000D03*
X211800000Y-118900000D03*
%TD*%
D11*
%TO.C,R35*%
X258930000Y-125325000D03*
X257020000Y-125325000D03*
%TD*%
D13*
%TO.C,DS64*%
X191000000Y-130900000D03*
X192500000Y-130900000D03*
X194000000Y-130900000D03*
X195500000Y-130900000D03*
X197000000Y-130900000D03*
X197000000Y-118900000D03*
X195500000Y-118900000D03*
X194000000Y-118900000D03*
X192500000Y-118900000D03*
X191000000Y-118900000D03*
%TD*%
D18*
%TO.C,R2*%
X52450000Y-48705000D03*
X52450000Y-50615000D03*
%TD*%
D13*
%TO.C,DS18*%
X128600000Y-130900000D03*
X130100000Y-130900000D03*
X131600000Y-130900000D03*
X133100000Y-130900000D03*
X134600000Y-130900000D03*
X134600000Y-118900000D03*
X133100000Y-118900000D03*
X131600000Y-118900000D03*
X130100000Y-118900000D03*
X128600000Y-118900000D03*
%TD*%
%TO.C,DS55*%
X180550000Y-84900000D03*
X182050000Y-84900000D03*
X183550000Y-84900000D03*
X185050000Y-84900000D03*
X186550000Y-84900000D03*
X186550000Y-72900000D03*
X185050000Y-72900000D03*
X183550000Y-72900000D03*
X182050000Y-72900000D03*
X180550000Y-72900000D03*
%TD*%
D14*
%TO.C,C33*%
X254200000Y-174200000D03*
X254200000Y-172300000D03*
%TD*%
D13*
%TO.C,DS9*%
X118200000Y-84900000D03*
X119700000Y-84900000D03*
X121200000Y-84900000D03*
X122700000Y-84900000D03*
X124200000Y-84900000D03*
X124200000Y-72900000D03*
X122700000Y-72900000D03*
X121200000Y-72900000D03*
X119700000Y-72900000D03*
X118200000Y-72900000D03*
%TD*%
D14*
%TO.C,C37*%
X93450000Y-65050000D03*
X93450000Y-66950000D03*
%TD*%
D11*
%TO.C,R22*%
X86005000Y-89370000D03*
X84095000Y-89370000D03*
%TD*%
D13*
%TO.C,DS23*%
X170200000Y-153900000D03*
X171700000Y-153900000D03*
X173200000Y-153900000D03*
X174700000Y-153900000D03*
X176200000Y-153900000D03*
X176200000Y-141900000D03*
X174700000Y-141900000D03*
X173200000Y-141900000D03*
X171700000Y-141900000D03*
X170200000Y-141900000D03*
%TD*%
D11*
%TO.C,R34*%
X258855000Y-79525000D03*
X256945000Y-79525000D03*
%TD*%
D13*
%TO.C,DS75*%
X201400000Y-153900000D03*
X202900000Y-153900000D03*
X204400000Y-153900000D03*
X205900000Y-153900000D03*
X207400000Y-153900000D03*
X207400000Y-141900000D03*
X205900000Y-141900000D03*
X204400000Y-141900000D03*
X202900000Y-141900000D03*
X201400000Y-141900000D03*
%TD*%
D18*
%TO.C,R5*%
X65205000Y-63455000D03*
X65205000Y-61545000D03*
%TD*%
D12*
%TO.C,U10*%
X96770000Y-163890000D03*
X96770000Y-165160000D03*
X96770000Y-166430000D03*
X96770000Y-167700000D03*
X96770000Y-168970000D03*
X96770000Y-170240000D03*
X96770000Y-171510000D03*
X96770000Y-172780000D03*
X96770000Y-174050000D03*
X96770000Y-175320000D03*
X96770000Y-176590000D03*
X96770000Y-177860000D03*
X106080000Y-177860000D03*
X106080000Y-176590000D03*
X106080000Y-175320000D03*
X106080000Y-174050000D03*
X106080000Y-172780000D03*
X106080000Y-171510000D03*
X106080000Y-170240000D03*
X106080000Y-168970000D03*
X106080000Y-167700000D03*
X106080000Y-166430000D03*
X106080000Y-165160000D03*
X106080000Y-163890000D03*
%TD*%
D32*
%TO.C,U1*%
X69115000Y-53892000D03*
X67845000Y-53892000D03*
X66575000Y-53892000D03*
X65305000Y-53892000D03*
X64035000Y-53892000D03*
X62765000Y-53892000D03*
X61495000Y-53892000D03*
X61495000Y-58802000D03*
X62765000Y-58802000D03*
X64035000Y-58802000D03*
X65305000Y-58802000D03*
X66575000Y-58802000D03*
X67845000Y-58802000D03*
X69115000Y-58802000D03*
%TD*%
D13*
%TO.C,DS46*%
X170200000Y-38900000D03*
X171700000Y-38900000D03*
X173200000Y-38900000D03*
X174700000Y-38900000D03*
X176200000Y-38900000D03*
X176200000Y-26900000D03*
X174700000Y-26900000D03*
X173200000Y-26900000D03*
X171700000Y-26900000D03*
X170200000Y-26900000D03*
%TD*%
%TO.C,DS63*%
X180600000Y-130900000D03*
X182100000Y-130900000D03*
X183600000Y-130900000D03*
X185100000Y-130900000D03*
X186600000Y-130900000D03*
X186600000Y-118900000D03*
X185100000Y-118900000D03*
X183600000Y-118900000D03*
X182100000Y-118900000D03*
X180600000Y-118900000D03*
%TD*%
D14*
%TO.C,C28*%
X237775000Y-193725000D03*
X237775000Y-191825000D03*
%TD*%
D18*
%TO.C,R13*%
X112100000Y-55320000D03*
X112100000Y-57230000D03*
%TD*%
D11*
%TO.C,R23*%
X233231250Y-33775000D03*
X231321250Y-33775000D03*
%TD*%
M02*
