M48
; DRILL file KiCad 10.0.1 date 2026-07-22T22:18:46
; FORMAT={-:-/ absolute / metric / decimal}
; #@! TF.CreationDate,2026-07-22T22:18:46-06:00
; #@! TF.GenerationSoftware,Kicad,Pcbnew,10.0.1
; #@! TF.FileFunction,Plated,1,2,PTH
FMAT,2
METRIC
; #@! TA.AperFunction,Plated,PTH,ViaDrill
T1C0.254
; #@! TA.AperFunction,Plated,PTH,ViaDrill
T2C0.300
; #@! TA.AperFunction,Plated,PTH,ViaDrill
T3C0.381
; #@! TA.AperFunction,Plated,PTH,ViaDrill
T4C0.508
; #@! TA.AperFunction,Plated,PTH,ComponentDrill
T5C0.710
; #@! TA.AperFunction,Plated,PTH,ViaDrill
T6C0.762
; #@! TA.AperFunction,Plated,PTH,ComponentDrill
T7C0.800
; #@! TA.AperFunction,Plated,PTH,ComponentDrill
T8C1.000
; #@! TA.AperFunction,Plated,PTH,ComponentDrill
T9C1.100
; #@! TA.AperFunction,Plated,PTH,ComponentDrill
T10C1.194
; #@! TA.AperFunction,Plated,PTH,ComponentDrill
T11C1.200
%
G90
G05
T1
X62.232Y-48.992
X63.0Y-51.56
X64.25Y-91.33
X65.6Y-50.06
X65.93Y-48.31
X67.9Y-38.1
X68.44Y-37.2
X69.0Y-36.2
X81.17Y-88.35
X81.56Y-44.625
X81.58Y-43.355
X81.6Y-42.085
X93.0Y-41.05
X93.75Y-84.75
X94.125Y-91.175
X94.85Y-177.175
X95.525Y-133.15
X95.575Y-41.075
X95.675Y-179.325
X96.625Y-135.1
X97.025Y-112.225
X97.2Y-107.625
X98.0Y-200.5
X98.15Y-154.775
X98.537Y-40.062
X98.65Y-156.125
X98.85Y-82.1
X99.05Y-127.25
X99.15Y-70.725
X99.15Y-178.6
X99.188Y-84.112
X99.225Y-85.925
X99.25Y-125.7
X99.35Y-80.375
X99.35Y-172.34
X99.375Y-37.7
X99.4Y-132.925
X99.425Y-173.94
X99.45Y-64.075
X99.5Y-176.975
X99.6Y-33.35
X99.625Y-34.65
X99.725Y-39.175
X99.85Y-131.425
X100.6Y-88.325
X100.8Y-42.7
X101.067Y-201.808
X101.175Y-181.725
X101.225Y-69.7
X101.5Y-170.425
X102.125Y-107.925
X102.15Y-106.35
X102.275Y-136.425
X102.425Y-60.65
X102.425Y-62.025
X102.425Y-103.795
X102.575Y-201.1
X102.7Y-197.825
X102.7Y-199.65
X102.75Y-102.525
X102.785Y-153.16
X102.79Y-151.355
X102.8Y-195.74
X102.805Y-149.73
X102.805Y-154.75
X102.825Y-56.55
X102.925Y-57.8
X103.275Y-129.75
X103.3Y-83.925
X103.65Y-110.65
X103.825Y-157.075
X106.775Y-106.975
X107.05Y-152.65
X107.647Y-62.102
X107.725Y-199.75
X108.9Y-81.975
X108.9Y-83.2
X108.9Y-127.94
X108.9Y-129.165
X108.9Y-173.94
X108.9Y-175.165
X108.905Y-35.94
X108.905Y-37.165
X108.925Y-84.275
X108.925Y-85.375
X108.925Y-130.24
X108.925Y-131.34
X108.925Y-176.24
X108.925Y-177.34
X108.93Y-38.24
X108.93Y-39.34
X112.525Y-205.825
X112.55Y-198.14
X112.55Y-199.37
X112.555Y-106.13
X112.555Y-107.36
X112.555Y-152.13
X112.555Y-153.36
X112.56Y-197.07
X112.565Y-105.06
X112.565Y-151.06
X112.57Y-200.66
X112.575Y-108.65
X112.575Y-154.65
X112.65Y-59.15
X112.65Y-60.4
X112.65Y-61.575
X112.65Y-62.875
X114.938Y-71.612
X114.938Y-117.578
X114.938Y-163.577
X114.942Y-25.578
X115.975Y-73.1
X115.975Y-119.065
X115.975Y-165.065
X115.98Y-27.065
X116.075Y-86.85
X116.075Y-132.815
X116.075Y-178.815
X116.08Y-40.815
X116.35Y-85.4
X116.35Y-131.365
X116.35Y-177.365
X116.355Y-39.365
X118.2Y-36.625
X118.2Y-70.7
X118.2Y-82.625
X118.2Y-87.225
X118.2Y-116.665
X118.2Y-128.625
X118.2Y-133.19
X118.2Y-162.665
X118.2Y-174.6
X118.2Y-179.19
X118.205Y-24.665
X118.205Y-41.19
X119.8Y-88.75
X119.8Y-134.715
X119.8Y-180.715
X119.805Y-42.715
X121.175Y-69.7
X121.175Y-115.665
X121.175Y-161.665
X121.18Y-23.665
X121.775Y-87.675
X121.775Y-133.64
X121.775Y-179.64
X121.78Y-41.64
X122.0Y-70.575
X122.0Y-116.54
X122.0Y-162.54
X122.005Y-24.54
X122.7Y-82.8
X122.7Y-128.765
X122.7Y-174.765
X122.705Y-36.765
X123.1Y-29.475
X123.1Y-75.475
X123.1Y-121.475
X123.1Y-167.475
X123.175Y-87.475
X123.175Y-133.44
X123.175Y-179.44
X123.18Y-41.44
X127.425Y-38.9
X127.425Y-84.9
X127.425Y-130.9
X127.425Y-176.875
X127.6Y-72.9
X127.6Y-118.865
X127.6Y-164.865
X127.605Y-26.865
X128.6Y-70.7
X128.6Y-116.665
X128.6Y-162.665
X128.605Y-24.665
X128.625Y-87.1
X128.625Y-133.065
X128.625Y-179.065
X128.63Y-41.065
X131.225Y-82.425
X131.225Y-128.39
X131.225Y-174.39
X131.23Y-36.39
X131.725Y-24.5
X131.725Y-70.5
X131.725Y-116.5
X131.725Y-162.5
X132.1Y-87.05
X132.1Y-133.015
X132.1Y-179.015
X132.105Y-41.015
X133.1Y-75.025
X133.1Y-120.99
X133.1Y-166.99
X133.105Y-28.99
X133.125Y-82.825
X133.125Y-128.79
X133.125Y-174.79
X133.13Y-36.79
X138.0Y-72.9
X138.0Y-118.865
X138.0Y-164.865
X138.005Y-26.865
X138.025Y-84.9
X138.025Y-130.865
X138.025Y-176.865
X138.03Y-38.865
X138.562Y-78.513
X138.562Y-124.477
X138.562Y-170.477
X138.567Y-32.477
X139.0Y-70.7
X139.0Y-116.665
X139.0Y-162.665
X139.005Y-24.665
X139.025Y-87.1
X139.025Y-133.065
X139.025Y-179.065
X139.03Y-41.065
X141.85Y-75.225
X141.85Y-121.19
X141.85Y-167.19
X141.855Y-29.19
X142.375Y-65.4
X142.395Y-203.41
X142.4Y-111.4
X142.4Y-157.4
X142.5Y-70.775
X142.5Y-116.74
X142.5Y-162.74
X142.505Y-24.74
X142.525Y-87.075
X142.525Y-133.04
X142.525Y-179.04
X142.53Y-41.04
X143.5Y-75.0
X143.5Y-120.965
X143.5Y-166.965
X143.505Y-28.965
X143.525Y-82.825
X143.525Y-128.79
X143.525Y-174.79
X143.53Y-36.79
X143.815Y-184.825
X143.82Y-92.815
X143.82Y-138.815
X143.825Y-46.825
X145.34Y-185.65
X145.345Y-93.64
X145.345Y-139.64
X145.35Y-47.65
X145.475Y-64.1
X145.495Y-202.11
X145.5Y-110.1
X145.5Y-156.1
X147.315Y-185.55
X147.32Y-93.54
X147.32Y-139.54
X147.325Y-47.55
X148.1Y-80.1
X148.1Y-126.065
X148.1Y-172.065
X148.105Y-34.065
X148.4Y-72.9
X148.4Y-118.865
X148.4Y-164.865
X148.405Y-26.865
X148.425Y-84.9
X148.425Y-130.865
X148.425Y-176.865
X148.43Y-38.865
X149.05Y-80.775
X149.05Y-126.74
X149.05Y-172.74
X149.055Y-34.74
X149.39Y-202.09
X149.395Y-110.08
X149.395Y-156.08
X149.4Y-47.7
X149.4Y-64.0
X149.4Y-70.7
X149.4Y-87.1
X149.4Y-116.665
X149.4Y-133.065
X149.4Y-162.665
X149.4Y-179.065
X149.4Y-185.71
X149.405Y-24.665
X149.405Y-41.065
X149.405Y-93.7
X149.405Y-139.7
X150.825Y-79.425
X150.825Y-125.39
X150.825Y-171.39
X150.83Y-33.39
X151.115Y-183.625
X151.12Y-91.615
X151.12Y-137.615
X151.125Y-45.625
X151.825Y-80.2
X151.825Y-126.165
X151.825Y-172.165
X151.83Y-34.165
X152.15Y-82.6
X152.15Y-128.565
X152.15Y-174.565
X152.155Y-36.565
X152.9Y-70.75
X152.9Y-116.715
X152.9Y-162.715
X152.905Y-24.715
X152.925Y-87.075
X152.925Y-133.04
X152.925Y-179.04
X152.93Y-41.04
X152.965Y-185.4
X152.97Y-93.39
X152.97Y-139.39
X152.975Y-47.4
X153.4Y-64.125
X153.42Y-202.135
X153.425Y-110.125
X153.425Y-156.125
X153.9Y-52.0
X153.9Y-65.575
X153.9Y-75.0
X153.9Y-120.965
X153.9Y-166.965
X153.905Y-28.965
X153.91Y-190.01
X153.915Y-98.0
X153.915Y-144.0
X153.925Y-82.825
X153.925Y-128.79
X153.925Y-174.79
X153.93Y-36.79
X153.965Y-183.65
X153.97Y-91.64
X153.97Y-137.64
X153.975Y-45.65
X154.425Y-59.4
X154.475Y-197.39
X154.48Y-105.38
X154.48Y-151.38
X156.0Y-202.2
X156.005Y-110.19
X156.005Y-156.19
X158.12Y-200.05
X158.125Y-108.04
X158.125Y-154.04
X158.35Y-61.9
X158.8Y-49.9
X158.8Y-72.9
X158.8Y-84.9
X158.8Y-118.865
X158.8Y-130.865
X158.8Y-164.865
X158.8Y-176.865
X158.8Y-187.91
X158.805Y-26.865
X158.805Y-38.865
X158.805Y-95.9
X158.805Y-141.9
X159.75Y-70.7
X159.75Y-116.665
X159.75Y-162.665
X159.755Y-24.665
X159.8Y-47.7
X159.8Y-64.0
X159.8Y-87.1
X159.8Y-133.065
X159.8Y-179.065
X159.805Y-41.065
X159.81Y-185.71
X159.81Y-202.09
X159.815Y-93.7
X159.815Y-110.08
X159.815Y-139.7
X159.815Y-156.08
X161.037Y-76.862
X161.037Y-122.828
X161.037Y-168.827
X161.042Y-30.827
X162.32Y-197.52
X162.325Y-105.51
X162.325Y-151.51
X162.425Y-59.55
X162.65Y-75.25
X162.65Y-121.215
X162.65Y-167.215
X162.655Y-29.215
X162.8Y-64.05
X162.85Y-202.04
X162.855Y-110.03
X162.855Y-156.03
X163.3Y-47.75
X163.3Y-70.75
X163.3Y-116.715
X163.3Y-162.715
X163.305Y-24.715
X163.31Y-185.76
X163.315Y-93.75
X163.315Y-139.75
X163.325Y-87.075
X163.325Y-133.04
X163.325Y-179.04
X163.33Y-41.04
X164.25Y-75.0
X164.25Y-120.965
X164.25Y-166.965
X164.255Y-28.965
X164.275Y-82.8
X164.275Y-128.765
X164.275Y-174.765
X164.28Y-36.765
X164.29Y-190.01
X164.295Y-98.0
X164.295Y-144.0
X164.3Y-52.0
X164.33Y-197.8
X164.335Y-105.79
X164.335Y-151.79
X164.825Y-59.4
X168.75Y-61.9
X169.04Y-193.28
X169.045Y-101.27
X169.045Y-147.27
X169.05Y-55.675
X169.15Y-72.9
X169.15Y-118.865
X169.15Y-164.865
X169.155Y-26.865
X169.2Y-49.9
X169.2Y-84.9
X169.2Y-130.865
X169.2Y-176.865
X169.205Y-38.865
X169.21Y-187.91
X169.21Y-199.89
X169.215Y-95.9
X169.215Y-107.88
X169.215Y-141.9
X169.215Y-153.88
X170.15Y-70.7
X170.15Y-116.665
X170.15Y-162.665
X170.155Y-24.665
X170.2Y-47.7
X170.2Y-64.0
X170.2Y-87.1
X170.2Y-133.065
X170.2Y-179.065
X170.205Y-41.065
X170.21Y-185.71
X170.21Y-202.09
X170.215Y-93.7
X170.215Y-110.08
X170.215Y-139.7
X170.215Y-156.08
X172.775Y-82.4
X172.775Y-128.365
X172.775Y-174.365
X172.78Y-36.365
X173.04Y-190.26
X173.045Y-98.25
X173.045Y-144.25
X173.075Y-52.375
X173.2Y-64.05
X173.65Y-70.75
X173.65Y-116.715
X173.65Y-162.715
X173.655Y-24.715
X173.675Y-87.05
X173.675Y-133.015
X173.675Y-179.015
X173.68Y-41.015
X173.69Y-185.76
X173.695Y-93.75
X173.695Y-139.75
X173.7Y-47.75
X173.73Y-202.05
X173.735Y-110.04
X173.735Y-156.04
X174.65Y-75.0
X174.65Y-120.965
X174.65Y-166.965
X174.655Y-28.965
X174.675Y-82.8
X174.675Y-128.765
X174.675Y-174.765
X174.68Y-36.765
X174.7Y-52.0
X174.71Y-190.01
X174.715Y-98.0
X174.715Y-144.0
X174.73Y-197.8
X174.735Y-105.79
X174.735Y-151.79
X175.225Y-59.4
X176.0Y-57.275
X179.15Y-57.975
X179.15Y-61.9
X179.55Y-72.9
X179.55Y-118.865
X179.55Y-164.865
X179.555Y-26.865
X179.6Y-49.9
X179.6Y-84.9
X179.6Y-130.865
X179.6Y-176.865
X179.605Y-38.865
X179.61Y-187.91
X179.61Y-199.89
X179.615Y-95.9
X179.615Y-107.88
X179.615Y-141.9
X179.615Y-153.88
X180.55Y-70.7
X180.55Y-87.1
X180.55Y-116.665
X180.55Y-133.065
X180.55Y-162.665
X180.55Y-179.065
X180.555Y-24.665
X180.555Y-41.065
X180.6Y-47.7
X180.6Y-64.0
X180.61Y-185.71
X180.61Y-202.09
X180.615Y-93.7
X180.615Y-110.08
X180.615Y-139.7
X180.615Y-156.08
X181.2Y-77.3
X181.2Y-123.265
X181.2Y-169.265
X181.205Y-31.265
X181.6Y-55.65
X182.125Y-56.6
X183.0Y-59.3
X183.425Y-75.275
X183.425Y-121.24
X183.425Y-167.24
X183.43Y-29.24
X183.48Y-190.21
X183.485Y-98.2
X183.485Y-144.2
X183.6Y-64.05
X184.05Y-70.75
X184.05Y-116.715
X184.05Y-162.715
X184.055Y-24.715
X184.075Y-87.05
X184.075Y-133.015
X184.075Y-179.015
X184.08Y-41.015
X184.1Y-47.75
X184.11Y-185.76
X184.115Y-93.75
X184.115Y-139.75
X184.13Y-202.05
X184.135Y-110.04
X184.135Y-156.04
X185.05Y-75.0
X185.05Y-120.965
X185.05Y-166.965
X185.055Y-28.965
X185.075Y-82.8
X185.075Y-128.765
X185.075Y-174.765
X185.08Y-36.765
X185.09Y-197.8
X185.095Y-105.79
X185.095Y-151.79
X185.1Y-52.0
X185.5Y-59.55
X185.665Y-98.385
X185.75Y-190.02
X185.755Y-144.01
X187.025Y-53.8
X187.55Y-191.73
X187.555Y-99.72
X187.555Y-145.72
X187.95Y-94.45
X188.87Y-201.25
X188.875Y-109.24
X188.875Y-155.24
X188.88Y-192.54
X188.885Y-100.53
X188.885Y-146.53
X189.55Y-61.9
X189.95Y-72.9
X189.95Y-84.9
X189.95Y-118.865
X189.95Y-130.865
X189.95Y-164.865
X189.95Y-176.865
X189.955Y-26.865
X189.955Y-38.865
X190.0Y-49.9
X190.01Y-187.91
X190.01Y-199.89
X190.015Y-95.9
X190.015Y-107.88
X190.015Y-141.9
X190.015Y-153.88
X191.0Y-47.7
X191.0Y-64.0
X193.19Y-190.92
X193.195Y-98.91
X193.195Y-144.91
X193.5Y-82.425
X193.5Y-128.39
X193.5Y-174.39
X193.505Y-36.39
X194.0Y-52.475
X194.45Y-70.75
X194.45Y-116.715
X194.45Y-162.715
X194.455Y-24.715
X194.475Y-87.05
X194.475Y-133.015
X194.475Y-179.015
X194.48Y-41.015
X194.49Y-202.05
X194.495Y-110.04
X194.495Y-156.04
X194.5Y-47.75
X194.825Y-59.7
X194.96Y-190.02
X194.965Y-144.01
X195.05Y-93.525
X195.5Y-52.0
X195.825Y-64.725
X196.9Y-93.625
X197.01Y-202.33
X197.015Y-110.32
X197.015Y-156.32
X198.4Y-65.5
X199.95Y-61.9
X200.4Y-49.9
X201.39Y-185.71
X201.41Y-202.09
X202.362Y-36.538
X203.425Y-98.925
X203.55Y-24.85
X203.575Y-133.925
X204.125Y-105.3
X204.3Y-59.45
X204.4Y-87.4
X204.4Y-179.87
X204.41Y-156.36
X204.43Y-197.44
X204.55Y-54.475
X204.95Y-43.925
X205.9Y-52.1
X205.9Y-64.2
X205.91Y-197.8
X206.15Y-35.55
X206.58Y-190.36
X206.6Y-65.1
X206.775Y-98.45
X207.1Y-23.0
X209.68Y-201.25
X210.25Y-23.95
X210.4Y-36.6
X210.79Y-187.91
X210.81Y-199.89
X212.0Y-35.675
X212.4Y-24.7
X212.42Y-139.18
X214.0Y-22.5
X214.275Y-110.6
X214.77Y-134.02
X214.8Y-64.425
X214.8Y-174.0
X214.825Y-45.1
X215.0Y-197.1
X215.04Y-190.36
X215.1Y-156.5
X215.175Y-87.825
X215.31Y-202.05
X216.1Y-24.4
X216.55Y-151.28
X216.63Y-139.4
X217.82Y-202.33
X219.4Y-179.5
X219.81Y-143.19
X219.99Y-137.82
X221.1Y-159.4
X221.5Y-160.8
X222.28Y-150.18
X228.3Y-159.6
X229.1Y-172.9
X230.2Y-168.0
X245.85Y-101.325
X247.125Y-115.475
T2
X47.39Y-36.87
X53.82Y-50.55
X54.67Y-44.43
X54.7Y-37.54
X54.7Y-38.79
X54.72Y-40.04
X54.73Y-41.35
X54.75Y-42.62
X54.91Y-31.18
X54.94Y-36.19
X56.6Y-48.28
X58.26Y-44.56
X62.85Y-71.73
X66.13Y-81.8
X66.22Y-83.64
X68.41Y-31.21
X68.48Y-50.425
X69.4Y-51.825
X69.43Y-91.42
X69.81Y-83.61
X70.6Y-49.75
X70.9Y-39.5
X71.58Y-90.69
X72.1Y-40.3
X72.138Y-52.337
X75.2Y-82.08
X75.22Y-87.85
X75.82Y-44.7
X75.93Y-32.45
X76.0Y-43.5
X76.12Y-86.76
X76.2Y-76.2
X76.78Y-31.21
X80.28Y-96.59
X80.34Y-99.7
X81.97Y-96.59
X82.01Y-99.83
X86.44Y-50.655
X89.475Y-108.125
X90.725Y-108.125
X92.0Y-108.125
X96.775Y-70.35
X98.4Y-116.6
X99.0Y-163.025
X99.125Y-87.4
X99.125Y-93.7
X99.625Y-140.0
X99.65Y-180.475
X99.7Y-40.825
X100.075Y-69.075
X100.1Y-47.65
X100.275Y-185.7
X101.0Y-135.6
X101.275Y-37.775
X101.725Y-110.175
X102.65Y-156.025
X126.1Y-200.4
X129.85Y-204.15
X233.56Y-119.4
X234.28Y-116.48
X237.06Y-114.36
X239.59Y-111.41
X242.83Y-108.69
X244.68Y-105.8
X245.225Y-95.82
X246.41Y-119.76
X247.37Y-118.0
X250.81Y-116.66
X251.51Y-111.76
X251.51Y-113.36
X252.81Y-115.56
X256.728Y-111.75
X258.028Y-113.95
X259.69Y-115.67
T3
X103.975Y-32.225
T4
X41.63Y-36.19
X44.6Y-46.8
X48.11Y-32.1
X49.22Y-48.03
X49.53Y-57.19
X58.69Y-66.83
X59.15Y-29.69
X62.0Y-39.5
X63.8Y-39.5
X65.8Y-39.5
X66.6Y-56.3
X67.18Y-29.53
X71.675Y-69.475
X71.8Y-74.425
X72.88Y-93.45
X76.75Y-78.2
X79.725Y-36.275
X82.98Y-91.65
X85.7Y-44.25
X86.55Y-61.65
X86.61Y-53.89
X88.05Y-61.65
X89.55Y-61.65
X90.025Y-71.325
X90.43Y-46.525
X94.575Y-82.125
X94.625Y-75.825
X97.825Y-104.85
X97.875Y-190.675
X97.925Y-197.05
X98.0Y-98.725
X98.05Y-144.675
X98.225Y-151.075
X98.825Y-128.675
X98.975Y-36.175
X98.975Y-121.675
X99.3Y-28.975
X99.425Y-175.45
X99.975Y-166.8
X102.075Y-46.6
X102.175Y-51.95
X102.85Y-59.375
X103.3Y-36.475
X103.3Y-76.35
X103.425Y-169.6
X103.45Y-122.25
X106.7Y-99.325
X106.725Y-191.125
X106.875Y-144.9
X106.9Y-54.6
X196.025Y-159.75
X228.35Y-162.175
X233.2Y-162.15
X237.675Y-158.375
X251.7Y-166.975
X258.1Y-106.57
T5
X78.82Y-30.83
X78.82Y-32.1
X80.09Y-30.83
X80.09Y-32.1
X81.36Y-30.83
X81.36Y-32.1
T6
X79.12Y-68.105
X79.12Y-70.465
X79.12Y-72.825
X79.12Y-75.185
X223.225Y-50.97
X223.225Y-53.33
X223.225Y-55.69
X223.225Y-58.05
X223.25Y-124.495
X223.25Y-126.855
X223.25Y-129.215
X223.25Y-131.575
X224.325Y-91.92
X224.325Y-94.28
X224.325Y-96.64
X224.325Y-99.0
T7
X89.94Y-93.88
X89.94Y-98.88
T9
X51.025Y-75.825
T10
X63.476Y-100.178
X63.476Y-105.182
X75.973Y-100.178
X75.973Y-105.182
X229.776Y-88.273
X229.776Y-93.277
X229.776Y-134.273
X229.776Y-139.277
X229.776Y-180.273
X229.776Y-185.277
X229.801Y-41.898
X229.801Y-46.902
X242.273Y-88.273
X242.273Y-93.277
X242.273Y-134.273
X242.273Y-139.277
X242.273Y-180.273
X242.273Y-185.277
X242.298Y-41.898
X242.298Y-46.902
X253.353Y-42.273
X253.353Y-47.277
X253.376Y-88.273
X253.376Y-93.277
X253.376Y-134.273
X253.376Y-139.277
X253.376Y-180.273
X253.376Y-185.277
X265.85Y-42.273
X265.85Y-47.277
X265.873Y-88.273
X265.873Y-93.277
X265.873Y-134.273
X265.873Y-139.277
X265.873Y-180.273
X265.873Y-185.277
T11
X45.975Y-70.775
X45.975Y-80.875
X56.075Y-70.775
X56.075Y-80.875
T7
G00X50.438Y-106.725
M15
G01X48.737Y-106.725
M16
G05
T8
G00X46.487Y-101.025
M15
G01X46.487Y-103.025
M16
G05
G00X52.387Y-100.775
M15
G01X52.387Y-103.275
M16
G05
M30
